<svg id="visual" viewBox="0 0 900 600" width="900" height="600" xmlns="http://www.w3.org/2000/svg" xmlns:xlink="http://www.w3.org/1999/xlink" version="1.1"><rect x="0" y="0" width="900" height="600" fill="#002233"></rect><path d="M0 407L21.5 417C43 427 86 447 128.8 453.5C171.7 460 214.3 453 257.2 462.5C300 472 343 498 385.8 495.8C428.7 493.7 471.3 463.3 514.2 458.8C557 454.3 600 475.7 642.8 480.7C685.7 485.7 728.3 474.3 771.2 469.8C814 465.3 857 467.7 878.5 468.8L900 470L900 601L878.5 601C857 601 814 601 771.2 601C728.3 601 685.7 601 642.8 601C600 601 557 601 514.2 601C471.3 601 428.7 601 385.8 601C343 601 300 601 257.2 601C214.3 601 171.7 601 128.8 601C86 601 43 601 21.5 601L0 601Z" fill="#0066FF" stroke-linecap="round" stroke-linejoin="miter"></path></svg>